<mxfile host="app.diagrams.net" agent="Mozilla/5.0 (Windows NT 10.0; Win64; x64) AppleWebKit/537.36 (KHTML, like Gecko) Chrome/134.0.0.0 Safari/537.36" version="26.2.15">
  <diagram name="第 1 页" id="ue2VQi0WPCsotTtIr74q">
    <mxGraphModel dx="1885" dy="643" grid="1" gridSize="10" guides="1" tooltips="1" connect="1" arrows="1" fold="1" page="1" pageScale="1" pageWidth="827" pageHeight="1169" math="0" shadow="0">
      <root>
        <mxCell id="0" />
        <mxCell id="1" parent="0" />
        <mxCell id="nKhiGV9R9DRft4xVtN-G-1" value="" style="edgeStyle=orthogonalEdgeStyle;rounded=0;orthogonalLoop=1;jettySize=auto;html=1;" edge="1" parent="1" source="nKhiGV9R9DRft4xVtN-G-2" target="nKhiGV9R9DRft4xVtN-G-5">
          <mxGeometry relative="1" as="geometry">
            <Array as="points">
              <mxPoint x="540" y="446" />
              <mxPoint x="540" y="446" />
            </Array>
          </mxGeometry>
        </mxCell>
        <mxCell id="nKhiGV9R9DRft4xVtN-G-2" value="LazyMap.get.(transform)" style="rounded=1;whiteSpace=wrap;html=1;" vertex="1" parent="1">
          <mxGeometry x="380" y="422" width="120" height="60" as="geometry" />
        </mxCell>
        <mxCell id="nKhiGV9R9DRft4xVtN-G-4" style="edgeStyle=orthogonalEdgeStyle;rounded=0;orthogonalLoop=1;jettySize=auto;html=1;exitX=1;exitY=0.5;exitDx=0;exitDy=0;" edge="1" parent="1" source="nKhiGV9R9DRft4xVtN-G-5">
          <mxGeometry relative="1" as="geometry">
            <mxPoint x="820" y="382" as="targetPoint" />
            <mxPoint x="770" y="452" as="sourcePoint" />
          </mxGeometry>
        </mxCell>
        <mxCell id="nKhiGV9R9DRft4xVtN-G-5" value="InvokerTransformer&lt;div&gt;.transform&lt;/div&gt;" style="whiteSpace=wrap;html=1;rounded=1;" vertex="1" parent="1">
          <mxGeometry x="640" y="422" width="120" height="48" as="geometry" />
        </mxCell>
        <mxCell id="nKhiGV9R9DRft4xVtN-G-6" value="命令执行exec" style="whiteSpace=wrap;html=1;rounded=1;" vertex="1" parent="1">
          <mxGeometry x="760" y="342" width="120" height="40" as="geometry" />
        </mxCell>
        <mxCell id="nKhiGV9R9DRft4xVtN-G-9" value="代码执行" style="whiteSpace=wrap;html=1;rounded=1;" vertex="1" parent="1">
          <mxGeometry x="760" y="542" width="110" height="40" as="geometry" />
        </mxCell>
        <mxCell id="nKhiGV9R9DRft4xVtN-G-37" value="" style="edgeStyle=orthogonalEdgeStyle;rounded=0;orthogonalLoop=1;jettySize=auto;html=1;" edge="1" parent="1" source="nKhiGV9R9DRft4xVtN-G-10" target="nKhiGV9R9DRft4xVtN-G-36">
          <mxGeometry relative="1" as="geometry" />
        </mxCell>
        <mxCell id="nKhiGV9R9DRft4xVtN-G-10" value="InstantiateTransformer&lt;div&gt;.transform&lt;/div&gt;" style="rounded=1;whiteSpace=wrap;html=1;" vertex="1" parent="1">
          <mxGeometry x="1040" y="580" width="120" height="60" as="geometry" />
        </mxCell>
        <mxCell id="nKhiGV9R9DRft4xVtN-G-29" value="" style="edgeStyle=orthogonalEdgeStyle;rounded=0;orthogonalLoop=1;jettySize=auto;html=1;" edge="1" parent="1" source="nKhiGV9R9DRft4xVtN-G-13" target="nKhiGV9R9DRft4xVtN-G-28">
          <mxGeometry relative="1" as="geometry" />
        </mxCell>
        <mxCell id="nKhiGV9R9DRft4xVtN-G-13" value="PriorityQueue&lt;div&gt;.readObject&lt;/div&gt;" style="rounded=1;whiteSpace=wrap;html=1;" vertex="1" parent="1">
          <mxGeometry x="30" y="700" width="120" height="60" as="geometry" />
        </mxCell>
        <mxCell id="nKhiGV9R9DRft4xVtN-G-14" value="AnnotationInvocation&lt;div&gt;Handler&lt;div&gt;.invoke(.get)&lt;/div&gt;&lt;/div&gt;" style="rounded=1;whiteSpace=wrap;html=1;" vertex="1" parent="1">
          <mxGeometry x="170" y="352" width="120" height="60" as="geometry" />
        </mxCell>
        <mxCell id="nKhiGV9R9DRft4xVtN-G-15" style="edgeStyle=orthogonalEdgeStyle;rounded=0;orthogonalLoop=1;jettySize=auto;html=1;entryX=0;entryY=0.333;entryDx=0;entryDy=0;entryPerimeter=0;" edge="1" parent="1" source="nKhiGV9R9DRft4xVtN-G-14" target="nKhiGV9R9DRft4xVtN-G-2">
          <mxGeometry relative="1" as="geometry" />
        </mxCell>
        <mxCell id="nKhiGV9R9DRft4xVtN-G-16" value="TiedMapEntry.getValue&lt;div&gt;(.get)&lt;/div&gt;" style="rounded=1;whiteSpace=wrap;html=1;" vertex="1" parent="1">
          <mxGeometry x="170" y="470" width="120" height="60" as="geometry" />
        </mxCell>
        <mxCell id="nKhiGV9R9DRft4xVtN-G-17" style="edgeStyle=orthogonalEdgeStyle;rounded=0;orthogonalLoop=1;jettySize=auto;html=1;entryX=-0.005;entryY=0.602;entryDx=0;entryDy=0;entryPerimeter=0;" edge="1" parent="1" source="nKhiGV9R9DRft4xVtN-G-16" target="nKhiGV9R9DRft4xVtN-G-2">
          <mxGeometry relative="1" as="geometry" />
        </mxCell>
        <mxCell id="nKhiGV9R9DRft4xVtN-G-18" style="edgeStyle=orthogonalEdgeStyle;rounded=0;orthogonalLoop=1;jettySize=auto;html=1;entryX=0;entryY=0.5;entryDx=0;entryDy=0;" edge="1" parent="1" target="nKhiGV9R9DRft4xVtN-G-21">
          <mxGeometry relative="1" as="geometry">
            <mxPoint x="-90" y="500" as="targetPoint" />
            <mxPoint x="-210" y="500" as="sourcePoint" />
          </mxGeometry>
        </mxCell>
        <mxCell id="nKhiGV9R9DRft4xVtN-G-19" value="HashCode.readObject&lt;div&gt;&lt;br&gt;&lt;/div&gt;" style="rounded=1;whiteSpace=wrap;html=1;" vertex="1" parent="1">
          <mxGeometry x="-290" y="470" width="120" height="60" as="geometry" />
        </mxCell>
        <mxCell id="nKhiGV9R9DRft4xVtN-G-20" style="edgeStyle=orthogonalEdgeStyle;rounded=0;orthogonalLoop=1;jettySize=auto;html=1;" edge="1" parent="1" source="nKhiGV9R9DRft4xVtN-G-21" target="nKhiGV9R9DRft4xVtN-G-16">
          <mxGeometry relative="1" as="geometry" />
        </mxCell>
        <mxCell id="nKhiGV9R9DRft4xVtN-G-21" value="HashCode.hash&lt;div&gt;(.hashCode)&lt;/div&gt;" style="rounded=1;whiteSpace=wrap;html=1;" vertex="1" parent="1">
          <mxGeometry x="-70" y="470" width="120" height="60" as="geometry" />
        </mxCell>
        <mxCell id="nKhiGV9R9DRft4xVtN-G-22" value="......" style="text;html=1;align=center;verticalAlign=middle;resizable=0;points=[];autosize=1;strokeColor=none;fillColor=none;" vertex="1" parent="1">
          <mxGeometry x="-150" y="470" width="40" height="30" as="geometry" />
        </mxCell>
        <mxCell id="nKhiGV9R9DRft4xVtN-G-23" value="" style="edgeStyle=orthogonalEdgeStyle;rounded=0;orthogonalLoop=1;jettySize=auto;html=1;" edge="1" parent="1" source="nKhiGV9R9DRft4xVtN-G-24">
          <mxGeometry relative="1" as="geometry">
            <mxPoint x="170" y="382" as="targetPoint" />
          </mxGeometry>
        </mxCell>
        <mxCell id="nKhiGV9R9DRft4xVtN-G-24" value="AnnotationInvocation&lt;div&gt;Handler.readObject&lt;/div&gt;" style="rounded=1;whiteSpace=wrap;html=1;" vertex="1" parent="1">
          <mxGeometry x="-30" y="352" width="120" height="60" as="geometry" />
        </mxCell>
        <mxCell id="nKhiGV9R9DRft4xVtN-G-25" value="&lt;font style=&quot;font-size: 21px;&quot;&gt;CC1&lt;/font&gt;" style="text;html=1;align=center;verticalAlign=middle;resizable=0;points=[];autosize=1;strokeColor=none;fillColor=none;" vertex="1" parent="1">
          <mxGeometry x="-110" y="362" width="70" height="40" as="geometry" />
        </mxCell>
        <mxCell id="nKhiGV9R9DRft4xVtN-G-26" value="&lt;font style=&quot;font-size: 21px;&quot;&gt;CC6&lt;/font&gt;" style="text;html=1;align=center;verticalAlign=middle;resizable=0;points=[];autosize=1;strokeColor=none;fillColor=none;" vertex="1" parent="1">
          <mxGeometry x="-360" y="480" width="70" height="40" as="geometry" />
        </mxCell>
        <mxCell id="nKhiGV9R9DRft4xVtN-G-27" value="CC1_CC6" style="text;html=1;align=center;verticalAlign=middle;resizable=0;points=[];autosize=1;strokeColor=none;fillColor=none;" vertex="1" parent="1">
          <mxGeometry x="780" y="412" width="80" height="30" as="geometry" />
        </mxCell>
        <mxCell id="nKhiGV9R9DRft4xVtN-G-31" value="" style="edgeStyle=orthogonalEdgeStyle;rounded=0;orthogonalLoop=1;jettySize=auto;html=1;" edge="1" parent="1" source="nKhiGV9R9DRft4xVtN-G-28" target="nKhiGV9R9DRft4xVtN-G-30">
          <mxGeometry relative="1" as="geometry" />
        </mxCell>
        <mxCell id="nKhiGV9R9DRft4xVtN-G-28" value="PriorityObject&lt;div&gt;.compare&lt;/div&gt;" style="whiteSpace=wrap;html=1;rounded=1;" vertex="1" parent="1">
          <mxGeometry x="230" y="700" width="120" height="60" as="geometry" />
        </mxCell>
        <mxCell id="nKhiGV9R9DRft4xVtN-G-32" style="edgeStyle=orthogonalEdgeStyle;rounded=0;orthogonalLoop=1;jettySize=auto;html=1;entryX=0;entryY=0.5;entryDx=0;entryDy=0;" edge="1" parent="1" source="nKhiGV9R9DRft4xVtN-G-30" target="nKhiGV9R9DRft4xVtN-G-9">
          <mxGeometry relative="1" as="geometry" />
        </mxCell>
        <mxCell id="nKhiGV9R9DRft4xVtN-G-30" value="Transforming&lt;div&gt;Comparator.compare&lt;/div&gt;&lt;div&gt;(.transform)&lt;/div&gt;" style="whiteSpace=wrap;html=1;rounded=1;" vertex="1" parent="1">
          <mxGeometry x="430" y="700" width="120" height="60" as="geometry" />
        </mxCell>
        <mxCell id="nKhiGV9R9DRft4xVtN-G-33" value="&lt;font style=&quot;font-size: 21px;&quot;&gt;CC4&lt;/font&gt;&lt;div&gt;&lt;font style=&quot;font-size: 21px;&quot;&gt;CC2&lt;/font&gt;&lt;/div&gt;" style="text;html=1;align=center;verticalAlign=middle;resizable=0;points=[];autosize=1;strokeColor=none;fillColor=none;" vertex="1" parent="1">
          <mxGeometry x="-60" y="700" width="70" height="60" as="geometry" />
        </mxCell>
        <mxCell id="nKhiGV9R9DRft4xVtN-G-39" value="" style="edgeStyle=orthogonalEdgeStyle;rounded=0;orthogonalLoop=1;jettySize=auto;html=1;" edge="1" parent="1" source="nKhiGV9R9DRft4xVtN-G-36" target="nKhiGV9R9DRft4xVtN-G-38">
          <mxGeometry relative="1" as="geometry" />
        </mxCell>
        <mxCell id="nKhiGV9R9DRft4xVtN-G-36" value="TrAXFilter.&lt;div&gt;constructor&lt;/div&gt;&lt;div&gt;.newTransformer&lt;/div&gt;" style="whiteSpace=wrap;html=1;rounded=1;" vertex="1" parent="1">
          <mxGeometry x="1240" y="580" width="120" height="60" as="geometry" />
        </mxCell>
        <mxCell id="nKhiGV9R9DRft4xVtN-G-43" value="" style="edgeStyle=orthogonalEdgeStyle;rounded=0;orthogonalLoop=1;jettySize=auto;html=1;" edge="1" parent="1" source="nKhiGV9R9DRft4xVtN-G-38" target="nKhiGV9R9DRft4xVtN-G-42">
          <mxGeometry relative="1" as="geometry" />
        </mxCell>
        <mxCell id="nKhiGV9R9DRft4xVtN-G-38" value="TemlateImpl&lt;div&gt;.newTransformer&lt;div&gt;.getTransletInstance&lt;/div&gt;&lt;/div&gt;" style="whiteSpace=wrap;html=1;rounded=1;" vertex="1" parent="1">
          <mxGeometry x="1480" y="580" width="120" height="60" as="geometry" />
        </mxCell>
        <mxCell id="nKhiGV9R9DRft4xVtN-G-40" value="CC4" style="text;html=1;align=center;verticalAlign=middle;resizable=0;points=[];autosize=1;strokeColor=none;fillColor=none;" vertex="1" parent="1">
          <mxGeometry x="970" y="580" width="50" height="30" as="geometry" />
        </mxCell>
        <mxCell id="nKhiGV9R9DRft4xVtN-G-42" value="defineTransletClasses&lt;div&gt;.defineClass&lt;/div&gt;" style="whiteSpace=wrap;html=1;rounded=1;" vertex="1" parent="1">
          <mxGeometry x="1680" y="580" width="120" height="60" as="geometry" />
        </mxCell>
        <mxCell id="nKhiGV9R9DRft4xVtN-G-47" value="CC2" style="text;html=1;align=center;verticalAlign=middle;resizable=0;points=[];autosize=1;strokeColor=none;fillColor=none;" vertex="1" parent="1">
          <mxGeometry x="970" y="486" width="50" height="30" as="geometry" />
        </mxCell>
        <mxCell id="nKhiGV9R9DRft4xVtN-G-49" value="" style="strokeWidth=2;html=1;shape=mxgraph.flowchart.annotation_2;align=left;labelPosition=right;pointerEvents=1;" vertex="1" parent="1">
          <mxGeometry x="870" y="516" width="170" height="92" as="geometry" />
        </mxCell>
        <mxCell id="nKhiGV9R9DRft4xVtN-G-52" value="" style="edgeStyle=orthogonalEdgeStyle;rounded=0;orthogonalLoop=1;jettySize=auto;html=1;" edge="1" parent="1" source="nKhiGV9R9DRft4xVtN-G-53" target="nKhiGV9R9DRft4xVtN-G-54">
          <mxGeometry relative="1" as="geometry" />
        </mxCell>
        <mxCell id="nKhiGV9R9DRft4xVtN-G-53" value="TemlateImpl&lt;div&gt;.newTransformer&lt;div&gt;.getTransletInstance&lt;/div&gt;&lt;/div&gt;" style="whiteSpace=wrap;html=1;rounded=1;" vertex="1" parent="1">
          <mxGeometry x="1241" y="490" width="120" height="60" as="geometry" />
        </mxCell>
        <mxCell id="nKhiGV9R9DRft4xVtN-G-54" value="defineTransletClasses&lt;div&gt;.defineClass&lt;/div&gt;" style="whiteSpace=wrap;html=1;rounded=1;" vertex="1" parent="1">
          <mxGeometry x="1441" y="490" width="120" height="60" as="geometry" />
        </mxCell>
        <mxCell id="nKhiGV9R9DRft4xVtN-G-56" style="edgeStyle=orthogonalEdgeStyle;rounded=0;orthogonalLoop=1;jettySize=auto;html=1;entryX=0;entryY=0.5;entryDx=0;entryDy=0;" edge="1" parent="1" source="nKhiGV9R9DRft4xVtN-G-55" target="nKhiGV9R9DRft4xVtN-G-53">
          <mxGeometry relative="1" as="geometry" />
        </mxCell>
        <mxCell id="nKhiGV9R9DRft4xVtN-G-55" value="InvokerTransformer&lt;div&gt;.transform&lt;/div&gt;" style="whiteSpace=wrap;html=1;rounded=1;" vertex="1" parent="1">
          <mxGeometry x="1040" y="490" width="120" height="60" as="geometry" />
        </mxCell>
        <mxCell id="nKhiGV9R9DRft4xVtN-G-60" style="edgeStyle=orthogonalEdgeStyle;rounded=0;orthogonalLoop=1;jettySize=auto;html=1;exitX=0.5;exitY=1;exitDx=0;exitDy=0;" edge="1" parent="1" source="nKhiGV9R9DRft4xVtN-G-2">
          <mxGeometry relative="1" as="geometry">
            <mxPoint x="506" y="476" as="sourcePoint" />
            <mxPoint x="826" y="542" as="targetPoint" />
            <Array as="points">
              <mxPoint x="440" y="502" />
              <mxPoint x="827" y="502" />
              <mxPoint x="827" y="532" />
              <mxPoint x="826" y="532" />
            </Array>
          </mxGeometry>
        </mxCell>
        <mxCell id="nKhiGV9R9DRft4xVtN-G-62" value="&lt;font style=&quot;font-size: 22px;&quot;&gt;CC3&lt;/font&gt;" style="edgeLabel;html=1;align=center;verticalAlign=middle;resizable=0;points=[];" vertex="1" connectable="0" parent="nKhiGV9R9DRft4xVtN-G-60">
          <mxGeometry x="-0.1903" y="1" relative="1" as="geometry">
            <mxPoint as="offset" />
          </mxGeometry>
        </mxCell>
        <mxCell id="nKhiGV9R9DRft4xVtN-G-66" style="edgeStyle=orthogonalEdgeStyle;rounded=0;orthogonalLoop=1;jettySize=auto;html=1;" edge="1" parent="1" source="nKhiGV9R9DRft4xVtN-G-63">
          <mxGeometry relative="1" as="geometry">
            <mxPoint x="440" y="420" as="targetPoint" />
          </mxGeometry>
        </mxCell>
        <mxCell id="nKhiGV9R9DRft4xVtN-G-63" value="TiedMapEntry.toString" style="rounded=1;whiteSpace=wrap;html=1;" vertex="1" parent="1">
          <mxGeometry x="180" y="230" width="120" height="60" as="geometry" />
        </mxCell>
        <mxCell id="nKhiGV9R9DRft4xVtN-G-64" style="edgeStyle=orthogonalEdgeStyle;rounded=0;orthogonalLoop=1;jettySize=auto;html=1;entryX=0;entryY=0.5;entryDx=0;entryDy=0;" edge="1" parent="1" source="nKhiGV9R9DRft4xVtN-G-65" target="nKhiGV9R9DRft4xVtN-G-63">
          <mxGeometry relative="1" as="geometry" />
        </mxCell>
        <mxCell id="nKhiGV9R9DRft4xVtN-G-65" value="BadAttributeValue&lt;div&gt;Exception.readObject&lt;/div&gt;" style="rounded=1;whiteSpace=wrap;html=1;" vertex="1" parent="1">
          <mxGeometry x="-30" y="230" width="120" height="60" as="geometry" />
        </mxCell>
        <mxCell id="nKhiGV9R9DRft4xVtN-G-67" value="&lt;font style=&quot;font-size: 21px;&quot;&gt;CC5&lt;/font&gt;" style="text;html=1;align=center;verticalAlign=middle;resizable=0;points=[];autosize=1;strokeColor=none;fillColor=none;" vertex="1" parent="1">
          <mxGeometry x="-205" y="233" width="70" height="40" as="geometry" />
        </mxCell>
      </root>
    </mxGraphModel>
  </diagram>
</mxfile>
